<svg width="20" height="20" viewBox="0 0 20 20" fill="none" xmlns="http://www.w3.org/2000/svg">
<path d="M9.99996 1.66669C5.39746 1.66669 1.66663 5.39752 1.66663 10C1.66663 14.6025 5.39746 18.3334 9.99996 18.3334C14.6025 18.3334 18.3333 14.6025 18.3333 10C18.3333 5.39752 14.6025 1.66669 9.99996 1.66669Z" stroke="#1890FF" stroke-width="1.25" stroke-linecap="round" stroke-linejoin="round"/>
<path d="M3.55908 15.2883C3.55908 15.2883 5.41658 12.9167 9.99991 12.9167C14.5832 12.9167 16.4416 15.2883 16.4416 15.2883M9.99991 10C10.663 10 11.2988 9.73661 11.7677 9.26777C12.2365 8.79893 12.4999 8.16304 12.4999 7.5C12.4999 6.83696 12.2365 6.20107 11.7677 5.73223C11.2988 5.26339 10.663 5 9.99991 5C9.33687 5 8.70099 5.26339 8.23215 5.73223C7.76331 6.20107 7.49992 6.83696 7.49992 7.5C7.49992 8.16304 7.76331 8.79893 8.23215 9.26777C8.70099 9.73661 9.33687 10 9.99991 10Z" stroke="#1890FF" stroke-width="1.25" stroke-linecap="round" stroke-linejoin="round"/>
</svg>
