<svg width="20" height="21" viewBox="0 0 20 21" fill="none" xmlns="http://www.w3.org/2000/svg">
<path fill-rule="evenodd" clip-rule="evenodd" d="M10.8153 7.3708H1.72857C1.53534 7.3708 1.35003 7.2947 1.21339 7.15924C1.07676 7.02377 1 6.84005 1 6.64848C1 6.45691 1.07676 6.27318 1.21339 6.13772C1.35003 6.00226 1.53534 5.92616 1.72857 5.92616H10.8153C10.9741 5.37149 11.311 4.88331 11.775 4.5357C12.239 4.18808 12.8046 4 13.3862 4C13.9678 4 14.5334 4.18808 14.9974 4.5357C15.4614 4.88331 15.7983 5.37149 15.9571 5.92616H17.2714C17.4647 5.92616 17.65 6.00226 17.7866 6.13772C17.9232 6.27318 18 6.45691 18 6.64848C18 6.84005 17.9232 7.02377 17.7866 7.15924C17.65 7.2947 17.4647 7.3708 17.2714 7.3708H15.9561C15.7971 7.92507 15.4601 8.41282 14.9962 8.7601C14.5324 9.10738 13.967 9.29526 13.3857 9.29526C12.8045 9.29526 12.2391 9.10738 11.7752 8.7601C11.3114 8.41282 10.9744 7.92507 10.8153 7.3708ZM12.1714 6.64848C12.1714 6.32919 12.2994 6.02299 12.5271 5.79722C12.7548 5.57145 13.0637 5.44461 13.3857 5.44461C13.7078 5.44461 14.0166 5.57145 14.2443 5.79722C14.4721 6.02299 14.6 6.32919 14.6 6.64848C14.6 6.96776 14.4721 7.27397 14.2443 7.49974C14.0166 7.72551 13.7078 7.85234 13.3857 7.85234C13.0637 7.85234 12.7548 7.72551 12.5271 7.49974C12.2994 7.27397 12.1714 6.96776 12.1714 6.64848ZM8.18566 15.0755H17.2714C17.4647 15.0755 17.65 14.9994 17.7866 14.864C17.9232 14.7285 18 14.5448 18 14.3532C18 14.1616 17.9232 13.9779 17.7866 13.8425C17.65 13.707 17.4647 13.6309 17.2714 13.6309H8.18566C8.02689 13.0762 7.68996 12.588 7.22599 12.2404C6.76201 11.8928 6.19633 11.7047 5.61477 11.7047C5.03321 11.7047 4.46753 11.8928 4.00356 12.2404C3.53958 12.588 3.20265 13.0762 3.04389 13.6309H1.72857C1.53534 13.6309 1.35003 13.707 1.21339 13.8425C1.07676 13.9779 1 14.1616 1 14.3532C1 14.5448 1.07676 14.7285 1.21339 14.864C1.35003 14.9994 1.53534 15.0755 1.72857 15.0755H3.04389C3.20294 15.6298 3.53993 16.1176 4.00378 16.4648C4.46763 16.8121 5.03303 17 5.61429 17C6.19554 17 6.76094 16.8121 7.22479 16.4648C7.68864 16.1176 8.02563 15.6298 8.18469 15.0755H8.18566ZM4.4 14.3532C4.4 14.0339 4.52793 13.7277 4.75566 13.502C4.98338 13.2762 5.29224 13.1494 5.61429 13.1494C5.93633 13.1494 6.24519 13.2762 6.47292 13.502C6.70064 13.7277 6.82857 14.0339 6.82857 14.3532C6.82857 14.6725 6.70064 14.9787 6.47292 15.2045C6.24519 15.4302 5.93633 15.5571 5.61429 15.5571C5.29224 15.5571 4.98338 15.4302 4.75566 15.2045C4.52793 14.9787 4.4 14.6725 4.4 14.3532Z" fill="#030303"/>
</svg>
