<svg width="16" height="16" viewBox="0 0 16 16" fill="none" xmlns="http://www.w3.org/2000/svg">
<path d="M4.93341 4.66669H3.06675C2.96066 4.66669 2.85892 4.70883 2.78391 4.78384C2.70889 4.85886 2.66675 4.9606 2.66675 5.06669V10.9334C2.66675 10.9859 2.67709 11.0379 2.6972 11.0864C2.7173 11.135 2.74676 11.1791 2.78391 11.2162C2.82105 11.2533 2.86514 11.2828 2.91367 11.3029C2.9622 11.323 3.01422 11.3334 3.06675 11.3334H4.93341C4.98594 11.3334 5.03796 11.323 5.08649 11.3029C5.13502 11.2828 5.17911 11.2533 5.21626 11.2162C5.2534 11.1791 5.28286 11.135 5.30297 11.0864C5.32307 11.0379 5.33341 10.9859 5.33341 10.9334V5.06669C5.33341 4.9606 5.29127 4.85886 5.21626 4.78384C5.14124 4.70883 5.0395 4.66669 4.93341 4.66669ZM12.9334 4.66669H11.0667C10.9607 4.66669 10.8589 4.70883 10.7839 4.78384C10.7089 4.85886 10.6667 4.9606 10.6667 5.06669V10.9334C10.6667 10.9859 10.6771 11.0379 10.6972 11.0864C10.7173 11.135 10.7468 11.1791 10.7839 11.2162C10.821 11.2533 10.8651 11.2828 10.9137 11.3029C10.9622 11.323 11.0142 11.3334 11.0667 11.3334H12.9334C12.9859 11.3334 13.038 11.323 13.0865 11.3029C13.135 11.2828 13.1791 11.2533 13.2163 11.2162C13.2534 11.1791 13.2829 11.135 13.303 11.0864C13.3231 11.0379 13.3334 10.9859 13.3334 10.9334V5.06669C13.3334 4.9606 13.2913 4.85886 13.2163 4.78384C13.1412 4.70883 13.0395 4.66669 12.9334 4.66669Z" stroke="#5C6B77" stroke-linecap="round" stroke-linejoin="round"/>
<path d="M5.33341 8H10.6667M0.666748 9.6V6.4C0.666748 6.29391 0.708891 6.19217 0.783905 6.11716C0.85892 6.04214 0.960661 6 1.06675 6H2.26675C2.37283 6 2.47458 6.04214 2.54959 6.11716C2.62461 6.19217 2.66675 6.29391 2.66675 6.4V9.6C2.66675 9.70609 2.62461 9.80783 2.54959 9.88284C2.47458 9.95786 2.37283 10 2.26675 10H1.06675C0.960661 10 0.85892 9.95786 0.783905 9.88284C0.708891 9.80783 0.666748 9.70609 0.666748 9.6ZM15.3334 9.6V6.4C15.3334 6.29391 15.2913 6.19217 15.2163 6.11716C15.1412 6.04214 15.0395 6 14.9334 6H13.7334C13.6273 6 13.5256 6.04214 13.4506 6.11716C13.3756 6.19217 13.3334 6.29391 13.3334 6.4V9.6C13.3334 9.70609 13.3756 9.80783 13.4506 9.88284C13.5256 9.95786 13.6273 10 13.7334 10H14.9334C15.0395 10 15.1412 9.95786 15.2163 9.88284C15.2913 9.80783 15.3334 9.70609 15.3334 9.6Z" stroke="#5C6B77" stroke-linecap="round" stroke-linejoin="round"/>
</svg>
