<svg width="16" height="14" viewBox="0 0 16 14" fill="none" xmlns="http://www.w3.org/2000/svg">
<path d="M11.6327 13.2635L11.6328 13.2636C11.8858 13.4167 12.1955 13.1925 12.1286 12.9046L11.212 8.97146L11.1435 8.67765L11.3715 8.4801L14.4298 5.8301L14.43 5.82994C14.6551 5.63511 14.5309 5.271 14.2426 5.24807L14.24 5.24786L14.24 5.24785L10.215 4.90618L9.91453 4.88068L9.79689 4.60307L8.22188 0.886398L8.22122 0.884829C8.10942 0.618469 7.72176 0.618469 7.60995 0.884828L7.60914 0.886771L7.60913 0.886769L6.03413 4.5951L5.91637 4.87237L5.61621 4.89785L1.59121 5.23952L1.58857 5.23974L1.58857 5.23973C1.30032 5.26266 1.17611 5.62678 1.40117 5.82161L1.40135 5.82176L4.45968 8.47176L4.68768 8.66932L4.61921 8.96313L3.70259 12.8962L11.6327 13.2635ZM11.6327 13.2635L8.17435 11.1718L7.9161 11.0156M11.6327 13.2635L7.9161 11.0156M7.9161 11.0156L7.65758 11.1714M7.9161 11.0156L7.65758 11.1714M7.65758 11.1714L4.19925 13.2547L4.19835 13.2552M7.65758 11.1714L4.19835 13.2552M4.19835 13.2552C3.94547 13.4083 3.6358 13.1843 3.70254 12.8965L4.19835 13.2552Z" stroke="#FFF230"/>
<mask id="mask0_10_2671" style="mask-type:alpha" maskUnits="userSpaceOnUse" x="0" y="0" width="16" height="14">
<path d="M7.9161 11.0156L8.17435 11.1718L11.6327 13.2635L11.6328 13.2636C11.8858 13.4167 12.1955 13.1925 12.1286 12.9046L11.212 8.97146L11.1435 8.67765L11.3715 8.4801L14.4298 5.8301L14.43 5.82994C14.6551 5.63511 14.5309 5.271 14.2426 5.24807L14.24 5.24786L14.24 5.24785L10.215 4.90618L9.91453 4.88068L9.79689 4.60307L8.22188 0.886398L8.22122 0.884829C8.10942 0.618469 7.72176 0.618469 7.60995 0.884828L7.60914 0.886771L7.60913 0.886769L6.03413 4.5951L5.91637 4.87237L5.61621 4.89785L1.59121 5.23952L1.58857 5.23974L1.58857 5.23973C1.30032 5.26266 1.17611 5.62678 1.40117 5.82161L1.40135 5.82176L4.45968 8.47176L4.68768 8.66932L4.61921 8.96313L3.70259 12.8962L7.9161 11.0156ZM7.9161 11.0156L7.65758 11.1714M7.9161 11.0156L7.65758 11.1714M7.65758 11.1714L4.19925 13.2547L4.19835 13.2552M7.65758 11.1714L4.19835 13.2552M4.19835 13.2552C3.94547 13.4083 3.6358 13.1843 3.70254 12.8965L4.19835 13.2552ZM11.6989 8.85797L14.7573 6.20798L11.6989 8.85797Z" fill="#D9D9D9" stroke="black"/>
</mask>
<g mask="url(#mask0_10_2671)">
<rect x="0.78479" y="0.185059" width="7" height="13" fill="#FFF230"/>
</g>
</svg>
