<svg width="16" height="16" viewBox="0 0 16 16" fill="none" xmlns="http://www.w3.org/2000/svg">
<path d="M8.00002 7.99992C7.26669 7.99992 6.66669 7.39992 6.66669 6.66658C6.66669 5.93325 7.26669 5.33325 8.00002 5.33325C8.73335 5.33325 9.33335 5.93325 9.33335 6.66658C9.33335 7.39992 8.73335 7.99992 8.00002 7.99992ZM12 6.79992C12 4.37992 10.2334 2.66659 8.00002 2.66659C5.76669 2.66659 4.00002 4.37992 4.00002 6.79992C4.00002 8.32051 5.23517 10.3225 7.79808 12.7071C7.91171 12.8128 8.08833 12.8128 8.20196 12.7071C10.7649 10.3225 12 8.32051 12 6.79992ZM8.00002 1.33325C10.8 1.33325 13.3334 3.47992 13.3334 6.79992C13.3334 8.97237 11.6185 11.5366 8.19511 14.4989C8.08356 14.5954 7.91648 14.5954 7.80493 14.4989C4.38154 11.5366 2.66669 8.97237 2.66669 6.79992C2.66669 3.47992 5.20002 1.33325 8.00002 1.33325Z" fill="#5C6B77"/>
</svg>
