<svg width="16" height="16" viewBox="0 0 16 16" fill="none" xmlns="http://www.w3.org/2000/svg">
<path d="M7.98895 14C7.77648 14 7.57271 13.9172 7.42247 13.7699C7.27223 13.6225 7.18783 13.4226 7.18783 13.2142C7.18783 13.0058 7.27223 12.806 7.42247 12.6586C7.57271 12.5113 7.77648 12.4285 7.98895 12.4285C8.20142 12.4285 8.40519 12.5113 8.55543 12.6586C8.70567 12.806 8.79007 13.0058 8.79007 13.2142C8.79007 13.4226 8.70567 13.6225 8.55543 13.7699C8.40519 13.9172 8.20142 14 7.98895 14ZM6.30179 11.9947C6.20298 12.1745 6.03672 12.3094 5.83822 12.371C5.63973 12.4325 5.42459 12.4159 5.23839 12.3246C5.05218 12.2333 4.90953 12.0744 4.84066 11.8817C4.77178 11.689 4.78208 11.4776 4.86939 11.2923C5.15935 10.7243 5.60473 10.2468 6.15567 9.91305C6.70662 9.57931 7.3414 9.40254 7.98895 9.40254C8.6365 9.40254 9.27128 9.57931 9.82223 9.91305C10.3732 10.2468 10.8186 10.7243 11.1085 11.2923C11.1594 11.3849 11.1909 11.4866 11.201 11.5914C11.211 11.6961 11.1996 11.8018 11.1672 11.9021C11.1349 12.0025 11.0823 12.0954 11.0126 12.1754C10.943 12.2555 10.8576 12.321 10.7617 12.368C10.6657 12.4151 10.5611 12.4428 10.454 12.4494C10.3469 12.4561 10.2396 12.4415 10.1383 12.4067C10.0371 12.3719 9.944 12.3175 9.8646 12.2467C9.7852 12.176 9.7211 12.0903 9.67611 11.9947C9.51978 11.687 9.27908 11.4282 8.98105 11.2472C8.68302 11.0663 8.33945 10.9705 7.98895 10.9705C7.63845 10.9705 7.29488 11.0663 6.99685 11.2472C6.69882 11.4282 6.45812 11.687 6.30179 11.9947ZM3.82312 9.75922C3.76 9.84177 3.68092 9.91132 3.59039 9.96389C3.49987 10.0165 3.39967 10.051 3.29552 10.0656C3.08519 10.0951 2.87153 10.0414 2.70155 9.91637C2.53158 9.79134 2.4192 9.60519 2.38916 9.39889C2.37428 9.29673 2.38006 9.19271 2.40617 9.09275C2.43228 8.99279 2.47821 8.89885 2.54133 8.8163C3.17591 7.98722 3.99849 7.31435 4.94399 6.85094C5.8895 6.38752 6.93197 6.14627 7.98895 6.14627C9.04593 6.14627 10.0884 6.38752 11.0339 6.85094C11.9794 7.31435 12.802 7.98722 13.4366 8.8163C13.4997 8.89885 13.5456 8.99279 13.5717 9.09275C13.5978 9.19271 13.6036 9.29673 13.5887 9.39889C13.5739 9.50104 13.5386 9.59931 13.485 9.6881C13.4314 9.7769 13.3605 9.85446 13.2763 9.91637C13.1922 9.97829 13.0964 10.0233 12.9945 10.0489C12.8926 10.0746 12.7865 10.0802 12.6824 10.0656C12.5782 10.051 12.478 10.0165 12.3875 9.96389C12.297 9.91132 12.2179 9.84177 12.1548 9.75922C11.6694 9.12532 11.0404 8.61087 10.3174 8.25656C9.59434 7.90225 8.79719 7.7178 7.98895 7.7178C7.18071 7.7178 6.38356 7.90225 5.66054 8.25656C4.93752 8.61087 4.30846 9.12532 3.82312 9.75922ZM1.3741 7.45693C1.22963 7.60193 1.03361 7.68656 0.827009 7.69311C0.620411 7.69966 0.419227 7.62763 0.265511 7.49208C0.111795 7.35653 0.0174467 7.16795 0.0021874 6.96576C-0.0130719 6.76357 0.0519392 6.56342 0.183631 6.40714C4.06346 2.18208 10.7023 1.83948 15.014 5.64259C15.288 5.88382 15.5483 6.1392 15.7943 6.40714C15.8647 6.48381 15.9189 6.57333 15.9541 6.67058C15.9892 6.76783 16.0044 6.87091 15.9989 6.97394C15.9934 7.07696 15.9673 7.17792 15.922 7.27104C15.8767 7.36415 15.8132 7.44761 15.735 7.51664C15.6568 7.58568 15.5656 7.63893 15.4664 7.67337C15.3673 7.70781 15.2622 7.72276 15.1571 7.71736C15.0521 7.71196 14.9491 7.68632 14.8542 7.6419C14.7593 7.59749 14.6742 7.53517 14.6038 7.4585C14.3952 7.23071 14.1743 7.01406 13.9421 6.80946C10.289 3.58703 4.6619 3.8754 1.3741 7.45693Z" fill="#5C6B77"/>
</svg>
