<svg width="32" height="32" viewBox="0 0 32 32" fill="none" xmlns="http://www.w3.org/2000/svg">
<path d="M25.82 14.4449C25.7288 14.5362 25.6205 14.6087 25.5012 14.6581C25.382 14.7075 25.2542 14.733 25.1251 14.733C24.9961 14.733 24.8683 14.7075 24.749 14.6581C24.6298 14.6087 24.5215 14.5362 24.4303 14.4449L17.268 7.28142V26.5179C17.268 26.7784 17.1645 27.0282 16.9803 27.2124C16.7961 27.3966 16.5463 27.5001 16.2858 27.5001C16.0254 27.5001 15.7755 27.3966 15.5914 27.2124C15.4072 27.0282 15.3037 26.7784 15.3037 26.5179V7.28142L8.14142 14.4449C7.95713 14.6292 7.70718 14.7327 7.44656 14.7327C7.18593 14.7327 6.93598 14.6292 6.75169 14.4449C6.5674 14.2606 6.46387 14.0107 6.46387 13.7501C6.46387 13.4894 6.5674 13.2395 6.75169 13.0552L15.591 4.21591C15.6822 4.12459 15.7905 4.05215 15.9097 4.00272C16.029 3.9533 16.1568 3.92786 16.2858 3.92786C16.4149 3.92786 16.5427 3.9533 16.6619 4.00272C16.7812 4.05215 16.8895 4.12459 16.9807 4.21591L25.82 13.0552C25.9113 13.1464 25.9838 13.2547 26.0332 13.374C26.0826 13.4932 26.108 13.621 26.108 13.7501C26.108 13.8791 26.0826 14.0069 26.0332 14.1262C25.9838 14.2454 25.9113 14.3537 25.82 14.4449Z" fill="black"/>
</svg>
