<svg width="16" height="16" viewBox="0 0 16 16" fill="none" xmlns="http://www.w3.org/2000/svg">
<path d="M2 2.5C2 2.36739 2.05268 2.24021 2.14645 2.14645C2.24021 2.05268 2.36739 2 2.5 2H5.5C5.63261 2 5.75979 2.05268 5.85355 2.14645C5.94732 2.24021 6 2.36739 6 2.5C6 2.63261 5.94732 2.75979 5.85355 2.85355C5.75979 2.94732 5.63261 3 5.5 3H3.707L6.354 5.646C6.44789 5.73989 6.50063 5.86722 6.50063 6C6.50063 6.13278 6.44789 6.26011 6.354 6.354C6.26011 6.44789 6.13278 6.50063 6 6.50063C5.86722 6.50063 5.73989 6.44789 5.646 6.354L3 3.707V5.5C3 5.63261 2.94732 5.75979 2.85355 5.85355C2.75979 5.94732 2.63261 6 2.5 6C2.36739 6 2.24021 5.94732 2.14645 5.85355C2.05268 5.75979 2 5.63261 2 5.5V2.5ZM13.5 2C13.6326 2 13.7598 2.05268 13.8536 2.14645C13.9473 2.24021 14 2.36739 14 2.5V5.5C14 5.63261 13.9473 5.75979 13.8536 5.85355C13.7598 5.94732 13.6326 6 13.5 6C13.3674 6 13.2402 5.94732 13.1464 5.85355C13.0527 5.75979 13 5.63261 13 5.5V3.707L10.354 6.354C10.2601 6.44789 10.1328 6.50063 10 6.50063C9.86722 6.50063 9.73989 6.44789 9.646 6.354C9.55211 6.26011 9.49937 6.13278 9.49937 6C9.49937 5.86722 9.55211 5.73989 9.646 5.646L12.293 3H10.5C10.3674 3 10.2402 2.94732 10.1464 2.85355C10.0527 2.75979 10 2.63261 10 2.5C10 2.36739 10.0527 2.24021 10.1464 2.14645C10.2402 2.05268 10.3674 2 10.5 2H13.5ZM13.5 14C13.6326 14 13.7598 13.9473 13.8536 13.8536C13.9473 13.7598 14 13.6326 14 13.5V10.5C14 10.3674 13.9473 10.2402 13.8536 10.1464C13.7598 10.0527 13.6326 10 13.5 10C13.3674 10 13.2402 10.0527 13.1464 10.1464C13.0527 10.2402 13 10.3674 13 10.5V12.293L10.354 9.646C10.2601 9.55211 10.1328 9.49937 10 9.49937C9.86722 9.49937 9.73989 9.55211 9.646 9.646C9.55211 9.73989 9.49937 9.86722 9.49937 10C9.49937 10.1328 9.55211 10.2601 9.646 10.354L12.293 13H10.5C10.3674 13 10.2402 13.0527 10.1464 13.1464C10.0527 13.2402 10 13.3674 10 13.5C10 13.6326 10.0527 13.7598 10.1464 13.8536C10.2402 13.9473 10.3674 14 10.5 14H13.5ZM2.5 14C2.36739 14 2.24021 13.9473 2.14645 13.8536C2.05268 13.7598 2 13.6326 2 13.5V10.5C2 10.3674 2.05268 10.2402 2.14645 10.1464C2.24021 10.0527 2.36739 10 2.5 10C2.63261 10 2.75979 10.0527 2.85355 10.1464C2.94732 10.2402 3 10.3674 3 10.5V12.293L5.646 9.646C5.73975 9.55211 5.86696 9.49932 5.99965 9.49922C6.13233 9.49913 6.25961 9.55175 6.3535 9.6455C6.44739 9.73925 6.50018 9.86646 6.50028 9.99915C6.50037 10.1318 6.44775 10.2591 6.354 10.353L3.707 13H5.5C5.63261 13 5.75979 13.0527 5.85355 13.1464C5.94732 13.2402 6 13.3674 6 13.5C6 13.6326 5.94732 13.7598 5.85355 13.8536C5.75979 13.9473 5.63261 14 5.5 14H2.5Z" fill="#030303"/>
</svg>
