<svg width="16" height="16" viewBox="0 0 16 16" fill="none" xmlns="http://www.w3.org/2000/svg">
<g clip-path="url(#clip0_10_2682)">
<path fill-rule="evenodd" clip-rule="evenodd" d="M7.99998 1.33325C11.682 1.33325 14.6666 4.31792 14.6666 7.99992C14.6666 11.6819 11.682 14.6666 7.99998 14.6666C4.31798 14.6666 1.33331 11.6819 1.33331 7.99992C1.33331 4.31792 4.31798 1.33325 7.99998 1.33325ZM7.99998 2.66659C6.58549 2.66659 5.22894 3.22849 4.22874 4.22868C3.22855 5.22888 2.66665 6.58543 2.66665 7.99992C2.66665 9.41441 3.22855 10.771 4.22874 11.7712C5.22894 12.7713 6.58549 13.3333 7.99998 13.3333C9.41447 13.3333 10.771 12.7713 11.7712 11.7712C12.7714 10.771 13.3333 9.41441 13.3333 7.99992C13.3333 6.58543 12.7714 5.22888 11.7712 4.22868C10.771 3.22849 9.41447 2.66659 7.99998 2.66659ZM8.99998 4.66659C9.60831 4.66571 10.1929 4.90244 10.6293 5.32634C11.0656 5.75025 11.3191 6.32779 11.3358 6.93589C11.3525 7.544 11.131 8.13458 10.7186 8.58178C10.3062 9.02898 9.73545 9.29743 9.12798 9.32992L8.99998 9.33325H7.33331V10.6666C7.33312 10.8365 7.26806 10.9999 7.15141 11.1235C7.03477 11.2471 6.87534 11.3214 6.70572 11.3314C6.53609 11.3413 6.36906 11.2861 6.23876 11.1771C6.10846 11.068 6.02472 10.9133 6.00465 10.7446L5.99998 10.6666V5.99992C5.99987 5.66353 6.12692 5.33954 6.35564 5.09289C6.58437 4.84623 6.89788 4.69515 7.23331 4.66992L7.33331 4.66659H8.99998ZM8.99998 5.99992H7.33331V7.99992H8.99998C9.25679 7.99979 9.50371 7.90087 9.68957 7.72365C9.87543 7.54642 9.98599 7.30449 9.99833 7.04798C10.0107 6.79146 9.92385 6.54003 9.75586 6.34578C9.58787 6.15154 9.35159 6.02937 9.09598 6.00459L8.99998 5.99992Z" fill="#5C6B77"/>
</g>
<defs>
<clipPath id="clip0_10_2682">
<rect width="16" height="16" fill="white"/>
</clipPath>
</defs>
</svg>
