<svg width="16" height="16" viewBox="0 0 16 16" fill="none" xmlns="http://www.w3.org/2000/svg">
<path d="M6.92 8.72002C6.83985 8.68586 6.75379 8.66774 6.66667 8.66669H4C3.82319 8.66669 3.65362 8.73693 3.5286 8.86195C3.40357 8.98697 3.33333 9.15654 3.33333 9.33335C3.33333 9.51017 3.40357 9.67974 3.5286 9.80476C3.65362 9.92978 3.82319 10 4 10H5.06L1.52667 13.5267C1.46418 13.5887 1.41458 13.6624 1.38074 13.7436C1.34689 13.8249 1.32947 13.912 1.32947 14C1.32947 14.088 1.34689 14.1752 1.38074 14.2564C1.41458 14.3376 1.46418 14.4114 1.52667 14.4734C1.58864 14.5358 1.66238 14.5854 1.74362 14.6193C1.82486 14.6531 1.91199 14.6706 2 14.6706C2.08801 14.6706 2.17514 14.6531 2.25638 14.6193C2.33762 14.5854 2.41136 14.5358 2.47333 14.4734L6 10.94V12C6 12.1768 6.07024 12.3464 6.19526 12.4714C6.32029 12.5964 6.48986 12.6667 6.66667 12.6667C6.84348 12.6667 7.01305 12.5964 7.13807 12.4714C7.2631 12.3464 7.33333 12.1768 7.33333 12V9.33335C7.33228 9.24624 7.31416 9.16017 7.28 9.08002C7.21235 8.91712 7.0829 8.78767 6.92 8.72002ZM6.66667 3.33336C6.48986 3.33336 6.32029 3.40359 6.19526 3.52862C6.07024 3.65364 6 3.82321 6 4.00002V5.06002L2.47333 1.52669C2.41117 1.46453 2.33738 1.41522 2.25617 1.38158C2.17495 1.34794 2.08791 1.33063 2 1.33063C1.91209 1.33063 1.82505 1.34794 1.74383 1.38158C1.66262 1.41522 1.58883 1.46453 1.52667 1.52669C1.40113 1.65222 1.33061 1.82249 1.33061 2.00002C1.33061 2.17756 1.40113 2.34782 1.52667 2.47336L5.06 6.00002H4C3.82319 6.00002 3.65362 6.07026 3.5286 6.19528C3.40357 6.32031 3.33333 6.48988 3.33333 6.66669C3.33333 6.8435 3.40357 7.01307 3.5286 7.13809C3.65362 7.26312 3.82319 7.33335 4 7.33335H6.66667C6.75379 7.3323 6.83985 7.31418 6.92 7.28002C7.0829 7.21237 7.21235 7.08292 7.28 6.92002C7.31416 6.83987 7.33228 6.75381 7.33333 6.66669V4.00002C7.33333 3.82321 7.2631 3.65364 7.13807 3.52862C7.01305 3.40359 6.84348 3.33336 6.66667 3.33336ZM9.08 7.28002C9.16015 7.31418 9.24622 7.3323 9.33333 7.33335H12C12.1768 7.33335 12.3464 7.26312 12.4714 7.13809C12.5964 7.01307 12.6667 6.8435 12.6667 6.66669C12.6667 6.48988 12.5964 6.32031 12.4714 6.19528C12.3464 6.07026 12.1768 6.00002 12 6.00002H10.94L14.4733 2.47336C14.5989 2.34782 14.6694 2.17756 14.6694 2.00002C14.6694 1.82249 14.5989 1.65222 14.4733 1.52669C14.3478 1.40115 14.1775 1.33063 14 1.33063C13.8225 1.33063 13.6522 1.40115 13.5267 1.52669L10 5.06002V4.00002C10 3.82321 9.92976 3.65364 9.80474 3.52862C9.67971 3.40359 9.51015 3.33336 9.33333 3.33336C9.15652 3.33336 8.98695 3.40359 8.86193 3.52862C8.7369 3.65364 8.66667 3.82321 8.66667 4.00002V6.66669C8.66772 6.75381 8.68584 6.83987 8.72 6.92002C8.78765 7.08292 8.9171 7.21237 9.08 7.28002ZM10.94 10H12C12.1768 10 12.3464 9.92978 12.4714 9.80476C12.5964 9.67974 12.6667 9.51017 12.6667 9.33335C12.6667 9.15654 12.5964 8.98697 12.4714 8.86195C12.3464 8.73693 12.1768 8.66669 12 8.66669H9.33333C9.24622 8.66774 9.16015 8.68586 9.08 8.72002C8.9171 8.78767 8.78765 8.91712 8.72 9.08002C8.68584 9.16017 8.66772 9.24624 8.66667 9.33335V12C8.66667 12.1768 8.7369 12.3464 8.86193 12.4714C8.98695 12.5964 9.15652 12.6667 9.33333 12.6667C9.51015 12.6667 9.67971 12.5964 9.80474 12.4714C9.92976 12.3464 10 12.1768 10 12V10.94L13.5267 14.4734C13.5886 14.5358 13.6624 14.5854 13.7436 14.6193C13.8249 14.6531 13.912 14.6706 14 14.6706C14.088 14.6706 14.1751 14.6531 14.2564 14.6193C14.3376 14.5854 14.4114 14.5358 14.4733 14.4734C14.5358 14.4114 14.5854 14.3376 14.6193 14.2564C14.6531 14.1752 14.6705 14.088 14.6705 14C14.6705 13.912 14.6531 13.8249 14.6193 13.7436C14.5854 13.6624 14.5358 13.5887 14.4733 13.5267L10.94 10Z" fill="black"/>
</svg>
